<svg width="16" height="21" viewBox="0 0 16 21" fill="none" xmlns="http://www.w3.org/2000/svg">
<path d="M1.99967 6.33268L7.18109 10.3627C7.66257 10.7372 8.33678 10.7372 8.81826 10.3627L13.9997 6.33268M3.46634 16.3327H12.533C13.2797 16.3327 13.6531 16.3327 13.9383 16.1874C14.1892 16.0595 14.3932 15.8556 14.521 15.6047C14.6663 15.3195 14.6663 14.9461 14.6663 14.1993V7.79935C14.6663 7.05261 14.6663 6.67924 14.521 6.39403C14.3932 6.14315 14.1892 5.93917 13.9383 5.81134C13.6531 5.66602 13.2797 5.66602 12.533 5.66602H3.46634C2.7196 5.66602 2.34624 5.66602 2.06102 5.81134C1.81014 5.93917 1.60616 6.14315 1.47833 6.39403C1.33301 6.67924 1.33301 7.05261 1.33301 7.79935V14.1993C1.33301 14.9461 1.33301 15.3195 1.47833 15.6047C1.60616 15.8556 1.81014 16.0595 2.06102 16.1874C2.34624 16.3327 2.7196 16.3327 3.46634 16.3327Z" stroke="#F15F43" stroke-width="1.33333"/>
</svg>
