<svg width="16" height="21" viewBox="0 0 16 21" fill="none" xmlns="http://www.w3.org/2000/svg">
<path d="M5.98717 9.50279C6.41113 10.3858 6.98907 11.2134 7.721 11.9453C8.45293 12.6773 9.28053 13.2552 10.1636 13.6792C10.2395 13.7156 10.2775 13.7339 10.3255 13.7479C10.4963 13.7977 10.706 13.7619 10.8506 13.6583C10.8913 13.6292 10.9262 13.5944 10.9958 13.5248C11.2088 13.3118 11.3152 13.2053 11.4223 13.1357C11.8261 12.8732 12.3467 12.8732 12.7505 13.1357C12.8575 13.2053 12.964 13.3118 13.177 13.5248L13.2957 13.6435C13.6194 13.9672 13.7813 14.129 13.8692 14.3029C14.044 14.6486 14.044 15.0569 13.8692 15.4026C13.7813 15.5765 13.6194 15.7383 13.2957 16.062L13.1996 16.1581C12.877 16.4807 12.7157 16.642 12.4964 16.7652C12.2531 16.9019 11.8751 17.0002 11.596 16.9993C11.3444 16.9986 11.1725 16.9498 10.8287 16.8522C8.98092 16.3278 7.23734 15.3382 5.78273 13.8836C4.32811 12.429 3.33858 10.6854 2.81413 8.83766C2.71654 8.49383 2.66775 8.32191 2.667 8.07037C2.66617 7.79125 2.76446 7.41328 2.90116 7.16993C3.02436 6.95062 3.18567 6.78931 3.50828 6.4667L3.6043 6.37068C3.92803 6.04695 4.08989 5.88509 4.26372 5.79717C4.60945 5.6223 5.01774 5.6223 5.36346 5.79717C5.5373 5.88509 5.69916 6.04695 6.02288 6.37068L6.14158 6.48938C6.35454 6.70234 6.46102 6.80882 6.53064 6.91589C6.79317 7.31968 6.79317 7.84024 6.53064 8.24404C6.46102 8.35111 6.35454 8.45759 6.14158 8.67055C6.07195 8.74018 6.03714 8.775 6.00799 8.8157C5.90443 8.96032 5.86867 9.17003 5.91846 9.3408C5.93246 9.38886 5.9507 9.42683 5.98717 9.50279Z" stroke="#F15F43" stroke-width="1.33333" stroke-linecap="round" stroke-linejoin="round"/>
</svg>
