<svg width="35" height="35" viewBox="0 0 35 35" fill="none" xmlns="http://www.w3.org/2000/svg">
<path d="M13.6934 27.333C14.5328 27.333 15.339 27.6659 15.9326 28.2598C16.5262 28.8533 16.8593 29.6586 16.8594 30.498C16.8594 31.3375 16.526 32.1428 15.9326 32.7363C15.376 33.2931 14.633 33.6214 13.8506 33.6602L13.6934 33.6641H13.499V33.6572C12.7308 33.6092 12.0036 33.2837 11.4561 32.7363C10.8628 32.1431 10.5293 31.3382 10.5283 30.499V30.498C10.5284 29.6586 10.8615 28.8533 11.4551 28.2598C12.0487 27.6661 12.854 27.3331 13.6934 27.333ZM13.6934 29.4746C13.4562 29.4754 13.2276 29.5581 13.0459 29.707L12.9707 29.7754C12.7787 29.9672 12.6704 30.2277 12.6699 30.499C12.6701 30.7703 12.7778 31.0309 12.9697 31.2227C13.1616 31.4145 13.4219 31.5223 13.6934 31.5225C13.9648 31.5225 14.226 31.4146 14.418 31.2227C14.6099 31.0307 14.7178 30.7695 14.7178 30.498C14.7177 30.2266 14.6099 29.9663 14.418 29.7744C14.226 29.5824 13.9648 29.4746 13.6934 29.4746Z" fill="#020001" stroke="#020001" stroke-width="0.388889"/>
<path d="M24.0537 27.333C24.8931 27.333 25.6984 27.6662 26.292 28.2598C26.8857 28.8533 27.2196 29.6586 27.2197 30.498V30.5771L27.2168 30.5791C27.1954 31.3893 26.8663 32.162 26.292 32.7363C25.6987 33.3298 24.8936 33.6631 24.0547 33.6641H24.0537C23.2143 33.664 22.4092 33.33 21.8154 32.7363C21.222 32.1428 20.8887 31.3375 20.8887 30.498C20.8888 29.6586 21.2219 28.8533 21.8154 28.2598C22.4091 27.6661 23.2143 27.3331 24.0537 27.333ZM24.0537 29.4746C23.7822 29.4747 23.522 29.5825 23.3301 29.7744C23.1382 29.9663 23.0304 30.2266 23.0303 30.498L23.0352 30.5986C23.0588 30.8331 23.1631 31.0537 23.3311 31.2217C23.5227 31.4133 23.7827 31.5206 24.0537 31.5215C24.3252 31.5215 24.5864 31.4146 24.7783 31.2227C24.9703 31.0307 25.0781 30.7695 25.0781 30.498C25.078 30.2266 24.9702 29.9663 24.7783 29.7744C24.5863 29.5824 24.3251 29.4746 24.0537 29.4746Z" fill="#020001" stroke="#020001" stroke-width="0.388889"/>
<path d="M5.15332 2.2334C5.94054 2.2334 6.70289 2.5 7.30273 2.9873C7.90302 3.4746 8.30164 4.151 8.42578 4.89453L8.83301 7.32031H31.8184L31.8213 7.3418C32.1499 7.36508 32.4555 7.51916 32.6602 7.77148C32.8825 8.04598 32.9598 8.40442 32.8672 8.74121L30.3076 18.0029C30.101 18.7508 29.64 19.4116 28.998 19.8828C28.3561 20.3539 27.5691 20.6094 26.7598 20.6094H11.0498L11.0771 20.7754C11.1555 21.2423 11.385 21.6733 11.7314 22.0098L11.8877 22.1484L12.0557 22.2725C12.4597 22.5456 12.9448 22.695 13.4453 22.6953H27.4316C27.8476 22.6954 28.234 22.9065 28.4443 23.2529C28.6549 23.5999 28.6549 24.0288 28.4443 24.376C28.2339 24.722 27.8475 24.9325 27.4316 24.9326H13.4639C12.3336 24.9364 11.2385 24.5542 10.3789 23.8535C9.51914 23.1526 8.95132 22.1797 8.78125 21.1123V21.1113L8.56738 19.8418C8.52392 19.7265 8.50041 19.6051 8.49805 19.4824V19.4482L6.74512 8.94336C6.66116 8.78783 6.61488 8.61599 6.61328 8.44043V8.43945C6.61328 8.37747 6.61883 8.31537 6.62988 8.25391L6.12988 5.24609C6.09364 5.02932 5.97583 4.83124 5.79785 4.68848C5.61968 4.5457 5.39262 4.4679 5.1582 4.4707H2.62695C2.21114 4.4707 1.82345 4.25963 1.61328 3.91309C1.40261 3.56611 1.40349 3.13713 1.61426 2.79004C1.8245 2.44406 2.21136 2.2334 2.62695 2.2334H5.15332ZM10.3711 16.5469L10.373 16.5547V16.5576L10.6758 18.3623H26.7568C27.0523 18.362 27.3389 18.2683 27.5713 18.0967C27.8038 17.9254 27.9689 17.6859 28.042 17.417V17.416L28.2881 16.5361L30.2129 9.55859H9.20605L10.3711 16.5469Z" fill="#020001" stroke="#020001" stroke-width="0.2"/>
</svg>
