<svg width="16" height="21" viewBox="0 0 16 21" fill="none" xmlns="http://www.w3.org/2000/svg">
<path d="M5.47711 12.5956C5.83664 12.5162 6.06372 12.1604 5.98431 11.8009C5.9049 11.4414 5.54908 11.2143 5.18955 11.2937L5.33333 11.9447L5.47711 12.5956ZM14 14.3341H13.3333C13.3333 14.4854 13.2671 14.6797 13.0456 14.9125C12.8207 15.1488 12.4639 15.3919 11.9719 15.6105C10.9896 16.0471 9.58591 16.3341 8 16.3341V17.0008V17.6675C9.7278 17.6675 11.3241 17.3575 12.5134 16.829C13.1072 16.565 13.629 16.2335 14.0114 15.8317C14.3971 15.4265 14.6667 14.9192 14.6667 14.3341H14ZM8 17.0008V16.3341C6.4141 16.3341 5.01038 16.0471 4.02812 15.6105C3.53614 15.3919 3.17928 15.1488 2.95444 14.9125C2.73287 14.6797 2.66667 14.4854 2.66667 14.3341H2H1.33333C1.33333 14.9192 1.60292 15.4265 1.98858 15.8317C2.37097 16.2335 2.89279 16.565 3.4866 16.829C4.67591 17.3575 6.2722 17.6675 8 17.6675V17.0008ZM2 14.3341H2.66667C2.66667 14.1224 2.80537 13.8097 3.30904 13.4559C3.80086 13.1104 4.54362 12.8018 5.47711 12.5956L5.33333 11.9447L5.18955 11.2937C4.14742 11.5239 3.22352 11.8865 2.54258 12.3649C1.87349 12.8349 1.33333 13.4988 1.33333 14.3341H2ZM10.6667 11.9447L10.5229 12.5956C11.4564 12.8018 12.1991 13.1104 12.691 13.4559C13.1946 13.8097 13.3333 14.1224 13.3333 14.3341H14H14.6667C14.6667 13.4988 14.1265 12.8349 13.4574 12.3649C12.7765 11.8865 11.8526 11.5239 10.8104 11.2937L10.6667 11.9447ZM8 14.334H8.66667V8.33406H8H7.33333V14.334H8ZM10 6.33398H9.33333C9.33333 7.0704 8.73635 7.66739 8 7.66739V8.33406V9.00072C9.47279 9.00072 10.6667 7.80671 10.6667 6.33398H10ZM8 8.33406V7.66739C7.26365 7.66739 6.66667 7.0704 6.66667 6.33398H6H5.33333C5.33333 7.80671 6.52721 9.00072 8 9.00072V8.33406ZM6 6.33398H6.66667C6.66667 5.5976 7.26362 5.00065 8 5.00065V4.33398V3.66732C6.52724 3.66732 5.33333 4.86123 5.33333 6.33398H6ZM8 4.33398V5.00065C8.73638 5.00065 9.33333 5.5976 9.33333 6.33398H10H10.6667C10.6667 4.86123 9.47276 3.66732 8 3.66732V4.33398Z" fill="#F15F43"/>
</svg>
