<svg width="16" height="21" viewBox="0 0 16 21" fill="none" xmlns="http://www.w3.org/2000/svg">
<path fill-rule="evenodd" clip-rule="evenodd" d="M8.00033 4.99935C4.68662 4.99935 2.00033 7.68564 2.00033 10.9993C2.00033 14.3131 4.68662 16.9993 8.00033 16.9993C11.314 16.9993 14.0003 14.3131 14.0003 10.9993C14.0003 7.68564 11.314 4.99935 8.00033 4.99935ZM0.666992 10.9993C0.666992 6.94926 3.95024 3.66602 8.00033 3.66602C12.0504 3.66602 15.3337 6.94926 15.3337 10.9993C15.3337 15.0494 12.0504 18.3327 8.00033 18.3327C3.95024 18.3327 0.666992 15.0494 0.666992 10.9993ZM8.00033 6.66602C8.36852 6.66602 8.66699 6.96449 8.66699 7.33268V10.7232L10.4717 12.5279C10.7321 12.7883 10.7321 13.2104 10.4717 13.4708C10.2114 13.7311 9.78927 13.7311 9.52892 13.4708L7.52892 11.4708C7.4039 11.3457 7.33366 11.1762 7.33366 10.9993V7.33268C7.33366 6.96449 7.63214 6.66602 8.00033 6.66602Z" fill="#F15F43"/>
</svg>
