<svg width="18" height="19" viewBox="0 0 18 19" fill="none" xmlns="http://www.w3.org/2000/svg">
<path d="M6.77417 14.9507C7.22716 14.9508 7.66177 15.1303 7.98218 15.4507C8.30267 15.7712 8.48315 16.2064 8.48315 16.6597C8.48306 17.1128 8.30258 17.5473 7.98218 17.8677C7.66176 18.1882 7.22722 18.3686 6.77417 18.3687H6.64917V18.3618C6.24184 18.3317 5.85705 18.1584 5.56616 17.8677C5.24588 17.5474 5.06572 17.1127 5.06519 16.6597C5.06519 16.2064 5.24469 15.7712 5.56519 15.4507C5.88576 15.1301 6.32091 14.9507 6.77417 14.9507ZM6.77417 16.1343C6.6348 16.1346 6.50153 16.1901 6.40308 16.2886C6.30455 16.387 6.24904 16.5205 6.24878 16.6597C6.24887 16.7988 6.30371 16.9324 6.4021 17.0308C6.50061 17.1293 6.63481 17.1851 6.77417 17.1851C6.91332 17.185 7.04684 17.1292 7.14526 17.0308C7.24368 16.9323 7.29947 16.7988 7.29956 16.6597C7.29956 16.5203 7.24377 16.3861 7.14526 16.2876C7.04685 16.1893 6.91324 16.1344 6.77417 16.1343Z" fill="white" stroke="white" stroke-width="0.248889"/>
<path d="M12.2996 14.9507C12.7527 14.9508 13.1872 15.1303 13.5076 15.4507C13.8282 15.7712 14.0085 16.2064 14.0085 16.6597V16.7095L14.0056 16.7114C13.992 17.1457 13.8156 17.5596 13.5076 17.8677C13.1873 18.1881 12.7525 18.3681 12.2996 18.3687C11.8463 18.3687 11.4112 18.1883 11.0906 17.8677C10.7702 17.5473 10.5907 17.1128 10.5906 16.6597C10.5906 16.2064 10.7701 15.7712 11.0906 15.4507C11.4111 15.1301 11.8463 14.9507 12.2996 14.9507ZM12.2996 16.1343C12.1602 16.1343 12.026 16.1891 11.9275 16.2876C11.829 16.3861 11.7742 16.5203 11.7742 16.6597C11.7747 16.7986 11.8303 16.9315 11.9285 17.0298C12.0269 17.1282 12.1603 17.1837 12.2996 17.1841C12.4387 17.184 12.5722 17.1292 12.6707 17.0308C12.7691 16.9324 12.8249 16.7988 12.825 16.6597C12.825 16.5203 12.7692 16.3861 12.6707 16.2876C12.5723 16.1893 12.4386 16.1344 12.2996 16.1343Z" fill="white" stroke="white" stroke-width="0.248889"/>
<path d="M2.21899 0.149658C2.66059 0.149658 3.08846 0.300169 3.42603 0.574463C3.76377 0.848675 3.98954 1.22938 4.05981 1.64966L4.26392 2.86353H16.5227L16.5256 2.88501C16.697 2.91528 16.8539 3.00397 16.9641 3.13989C17.1019 3.31003 17.1508 3.53319 17.093 3.74341L15.7278 8.68286C15.6116 9.10327 15.3527 9.47373 14.9934 9.73755C14.6342 10.0012 14.1942 10.1438 13.7424 10.1438H5.47876C5.52689 10.3952 5.66431 10.6251 5.87134 10.7932C6.08502 10.9668 6.35841 11.0626 6.64185 11.0627H14.1008C14.3549 11.0629 14.5925 11.1927 14.7229 11.4075C14.8538 11.6233 14.8538 11.8898 14.7229 12.1057V12.1067C14.5924 12.3211 14.3547 12.4503 14.1008 12.4504H6.65063C6.02624 12.4524 5.42057 12.2408 4.94458 11.8528C4.46854 11.4647 4.15362 10.9253 4.05884 10.3323L3.94556 9.65845C3.92163 9.59071 3.9079 9.52022 3.90649 9.44849V9.43872L2.97485 3.85474C2.92819 3.76239 2.90156 3.66126 2.90063 3.55786V3.55688C2.90063 3.52696 2.90529 3.4971 2.90942 3.46704L2.6438 1.86938C2.62844 1.77804 2.579 1.69371 2.5022 1.63208C2.42505 1.5702 2.32605 1.53616 2.2229 1.53735H0.871338C0.617322 1.53735 0.378689 1.40764 0.248291 1.19263C0.117298 0.976753 0.117202 0.709283 0.248291 0.493408C0.378731 0.278719 0.61745 0.149658 0.871338 0.149658H2.21899ZM5.09692 7.8645L5.24634 8.7522H13.7405C13.8779 8.75209 14.0104 8.70818 14.1174 8.62915C14.2243 8.55039 14.2991 8.44126 14.3323 8.31958L14.3333 8.3186L14.4641 7.84888L15.4573 4.25024H4.49438L5.09692 7.8645Z" fill="white" stroke="white" stroke-width="0.3"/>
</svg>
