<svg width="35" height="35" viewBox="0 0 35 35" fill="none" xmlns="http://www.w3.org/2000/svg">
<path fill-rule="evenodd" clip-rule="evenodd" d="M17.5 5.83366C14.681 5.83366 12.3958 8.11887 12.3958 10.9378C12.3958 13.7568 14.681 16.042 17.5 16.042C20.319 16.042 22.6042 13.7568 22.6042 10.9378C22.6042 8.11887 20.319 5.83366 17.5 5.83366ZM9.47917 10.9378C9.47917 6.50804 13.0702 2.91699 17.5 2.91699C21.9298 2.91699 25.5208 6.50804 25.5208 10.9378C25.5208 15.3676 21.9298 18.9587 17.5 18.9587C13.0702 18.9587 9.47917 15.3676 9.47917 10.9378ZM4.375 30.0003C4.375 24.7076 8.6656 20.417 13.9583 20.417H21.0417C26.3344 20.417 30.625 24.7076 30.625 30.0003V30.6253C30.625 31.4307 29.9721 32.0837 29.1667 32.0837C28.3613 32.0837 27.7083 31.4307 27.7083 30.6253V30.0003C27.7083 26.3184 24.7236 23.3337 21.0417 23.3337H13.9583C10.2764 23.3337 7.29167 26.3184 7.29167 30.0003V30.6253C7.29167 31.4307 6.63875 32.0837 5.83333 32.0837C5.02792 32.0837 4.375 31.4307 4.375 30.6253V30.0003Z" fill="#020001"/>
</svg>
